<svg xmlns="http://www.w3.org/2000/svg" xmlns:xlink="http://www.w3.org/1999/xlink" width="500" zoomAndPan="magnify" viewBox="0 0 375 225" height="300" preserveAspectRatio="xMidYMid meet" version="1.0"><defs><g/><clipPath id="8d588cce7f"><path d="M 243.046875 53.363281 L 352.546875 53.363281 L 352.546875 171.863281 L 243.046875 171.863281 Z M 243.046875 53.363281 " clip-rule="nonzero"/></clipPath></defs><g clip-path="url(#8d588cce7f)"><path fill="#000000" d="M 267.132812 167.832031 L 244.957031 167.832031 C 243.929688 167.832031 243.097656 168.667969 243.097656 169.695312 C 243.097656 170.722656 243.929688 171.554688 244.957031 171.554688 L 336.421875 171.554688 C 337.445312 171.554688 338.277344 170.722656 338.277344 169.695312 C 338.277344 168.667969 337.445312 167.832031 336.421875 167.832031 L 308.527344 167.832031 C 319.40625 162.230469 326.84375 150.878906 326.84375 137.785156 L 326.84375 110.148438 C 326.84375 109.125 326.011719 108.289062 324.988281 108.289062 L 250.671875 108.289062 C 249.648438 108.289062 248.816406 109.125 248.816406 110.148438 L 248.816406 137.785156 C 248.816406 150.878906 256.253906 162.230469 267.132812 167.832031 Z M 344.996094 171.554688 L 350.710938 171.554688 C 351.738281 171.554688 352.570312 170.722656 352.570312 169.695312 C 352.570312 168.667969 351.738281 167.832031 350.710938 167.832031 L 344.996094 167.832031 C 343.96875 167.832031 343.136719 168.667969 343.136719 169.695312 C 343.136719 170.722656 343.96875 171.554688 344.996094 171.554688 Z M 293.125 167.832031 L 282.535156 167.832031 C 265.964844 167.832031 252.53125 154.378906 252.53125 137.785156 L 252.53125 112.011719 L 323.128906 112.011719 C 323.128906 112.011719 323.128906 137.785156 323.128906 137.785156 C 323.128906 154.378906 309.695312 167.832031 293.125 167.832031 Z M 331.675781 117.460938 C 332.464844 116.976562 334.734375 116.253906 337.316406 116.082031 C 339.808594 115.914062 342.636719 116.246094 344.644531 118.109375 C 346.402344 119.742188 347.433594 122.496094 347.28125 126.855469 C 347.074219 132.882812 345.613281 136.339844 343.332031 138.214844 C 341.710938 139.542969 339.722656 140.011719 337.691406 140.144531 C 335.378906 140.296875 333 140.003906 330.894531 139.789062 C 329.871094 139.683594 328.960938 140.433594 328.855469 141.453125 C 328.75 142.472656 329.496094 143.390625 330.515625 143.492188 C 335.363281 143.988281 341.4375 144.574219 345.683594 141.09375 C 348.546875 138.75 350.730469 134.539062 350.996094 126.984375 C 351.199219 121.15625 349.519531 117.5625 347.171875 115.378906 C 344.386719 112.796875 340.523438 112.136719 337.066406 112.367188 C 333.695312 112.59375 330.761719 113.65625 329.730469 114.292969 C 328.859375 114.828125 328.582031 115.976562 329.121094 116.847656 C 329.65625 117.726562 330.800781 118 331.675781 117.460938 Z M 313.125 121.316406 L 313.125 138.492188 C 313.125 139.519531 313.957031 140.351562 314.984375 140.351562 C 316.011719 140.351562 316.839844 139.519531 316.839844 138.492188 L 316.839844 121.316406 C 316.839844 120.289062 316.011719 119.453125 314.984375 119.453125 C 313.957031 119.453125 313.125 120.289062 313.125 121.316406 Z M 263.414062 72.035156 C 261.695312 75.121094 259.851562 78.722656 260.332031 82.269531 C 260.667969 84.785156 262.039062 86.960938 263.472656 89.113281 C 264.589844 90.792969 265.773438 92.445312 266.058594 94.402344 C 266.203125 95.371094 265.90625 96.324219 265.480469 97.242188 C 264.941406 98.40625 264.179688 99.511719 263.5 100.515625 C 262.921875 101.367188 263.140625 102.523438 263.988281 103.101562 C 264.839844 103.679688 265.992188 103.460938 266.570312 102.609375 C 268.292969 100.070312 270.1875 96.949219 269.738281 93.863281 C 269.367188 91.359375 267.992188 89.191406 266.5625 87.046875 C 265.445312 85.375 264.277344 83.726562 264.011719 81.773438 C 263.636719 79 265.316406 76.257812 266.660156 73.84375 C 267.15625 72.945312 266.832031 71.808594 265.9375 71.3125 C 265.042969 70.8125 263.910156 71.136719 263.414062 72.035156 Z M 305.695312 72.035156 C 303.980469 75.121094 302.140625 78.722656 302.617188 82.269531 C 302.957031 84.785156 304.324219 86.960938 305.757812 89.113281 C 306.878906 90.792969 308.0625 92.445312 308.347656 94.402344 C 308.488281 95.371094 308.191406 96.324219 307.765625 97.242188 C 307.230469 98.40625 306.46875 99.511719 305.785156 100.515625 C 305.207031 101.367188 305.429688 102.523438 306.277344 103.101562 C 307.125 103.679688 308.28125 103.460938 308.859375 102.609375 C 310.582031 100.070312 312.476562 96.949219 312.023438 93.863281 C 311.65625 91.359375 310.277344 89.191406 308.847656 87.046875 C 307.730469 85.375 306.5625 83.726562 306.300781 81.773438 C 305.925781 79 307.605469 76.257812 308.945312 73.84375 C 309.445312 72.945312 309.121094 71.808594 308.222656 71.3125 C 307.328125 70.8125 306.199219 71.136719 305.695312 72.035156 Z M 283.355469 54.859375 C 281.640625 57.945312 279.792969 61.546875 280.273438 65.09375 C 280.613281 67.609375 281.980469 69.785156 283.414062 71.9375 C 284.535156 73.617188 285.714844 75.269531 286.003906 77.226562 C 286.144531 78.195312 285.847656 79.148438 285.421875 80.066406 C 284.882812 81.230469 284.125 82.335938 283.441406 83.339844 C 282.867188 84.191406 283.085938 85.347656 283.933594 85.925781 C 284.78125 86.503906 285.9375 86.285156 286.511719 85.433594 C 288.234375 82.894531 290.132812 79.773438 289.679688 76.6875 C 289.3125 74.183594 287.933594 72.011719 286.503906 69.871094 C 285.390625 68.199219 284.21875 66.550781 283.953125 64.597656 C 283.582031 61.824219 285.261719 59.078125 286.601562 56.667969 C 287.097656 55.769531 286.777344 54.632812 285.882812 54.136719 C 284.984375 53.636719 283.851562 53.957031 283.355469 54.859375 Z M 283.355469 54.859375 " fill-opacity="1" fill-rule="evenodd"/></g><g fill="#000000" fill-opacity="1"><g transform="translate(23.66059, 164.116371)"><g/></g></g><g fill="#000000" fill-opacity="1"><g transform="translate(44.307513, 164.116371)"><g><path d="M 28.433594 -16.214844 C 25.890625 -9.351562 20.164062 -6.757812 15.835938 -6.757812 C 11.566406 -6.757812 7.351562 -9.296875 7.351562 -12.863281 C 7.351562 -13.675781 7.460938 -14.59375 7.785156 -15.511719 L 14.59375 -34.488281 C 15.890625 -38.054688 18.109375 -38.59375 19.40625 -38.59375 C 20.648438 -38.59375 21.511719 -37.839844 21.511719 -36.214844 C 21.511719 -35.460938 21.296875 -34.488281 20.863281 -33.40625 C 20.703125 -33.027344 20.648438 -32.648438 20.648438 -32.269531 C 20.648438 -30.378906 22.488281 -28.8125 24.59375 -28.8125 C 26.488281 -28.8125 28.59375 -30.109375 29.566406 -33.675781 C 29.945312 -35.082031 30.109375 -36.378906 30.109375 -37.511719 C 30.109375 -43.460938 25.40625 -46.917969 19.242188 -46.917969 C 15.296875 -46.917969 9.1875 -45.296875 6.324219 -37.1875 L -0.433594 -17.890625 C -1.027344 -16.214844 -1.351562 -14.378906 -1.351562 -12.757812 C -1.351562 -5.675781 5.136719 0 14.539062 0 C 22.054688 0 31.40625 -3.835938 34.757812 -14.433594 C 34.863281 -14.863281 34.917969 -15.242188 34.917969 -15.566406 C 34.917969 -17.460938 33.242188 -18.539062 31.566406 -18.539062 C 30.164062 -18.539062 28.8125 -17.835938 28.433594 -16.214844 Z M 28.433594 -16.214844 "/></g></g></g><g fill="#000000" fill-opacity="1"><g transform="translate(70.737736, 164.116371)"><g><path d="M 37.40625 -17.835938 C 34.917969 -11.082031 31.40625 -6.8125 27.890625 -6.8125 C 26.539062 -6.8125 25.621094 -7.566406 25.621094 -9.027344 C 25.621094 -9.730469 25.835938 -10.757812 26.214844 -11.785156 L 36.757812 -41.242188 C 37.082031 -42.164062 37.242188 -42.972656 37.242188 -43.675781 C 37.242188 -46.164062 35.40625 -47.351562 33.40625 -47.351562 C 31.296875 -47.351562 28.972656 -46.109375 28.109375 -43.730469 C 26.433594 -46.164062 22.863281 -46.917969 20.488281 -46.917969 C 15.1875 -46.917969 9.945312 -43.890625 8.109375 -38.703125 L -0.703125 -13.890625 C -1.1875 -12.539062 -1.460938 -11.136719 -1.460938 -9.835938 C -1.460938 -4.109375 3.136719 0 9.136719 0 C 12.324219 0 15.835938 -1.40625 18.539062 -4.054688 C 20.378906 -1.40625 23.621094 0 27.242188 0 C 35.351562 0 40.703125 -6.703125 43.945312 -16.488281 C 44.109375 -16.917969 44.164062 -17.351562 44.164062 -17.730469 C 44.164062 -19.566406 42.648438 -20.648438 40.972656 -20.648438 C 39.511719 -20.648438 38 -19.785156 37.40625 -17.835938 Z M 10.972656 -8.164062 C 8.972656 -8.164062 7.730469 -9.566406 7.730469 -11.511719 C 7.730469 -12.164062 7.890625 -12.917969 8.164062 -13.730469 L 15.621094 -34.972656 C 16.539062 -37.511719 18.433594 -39.082031 20.59375 -39.082031 C 23.027344 -39.082031 25.1875 -37.082031 25.1875 -34.863281 C 25.1875 -34.488281 25.082031 -34.109375 24.972656 -33.730469 L 18.488281 -15.511719 C 16.378906 -9.566406 13.730469 -8.164062 10.972656 -8.164062 Z M 10.972656 -8.164062 "/></g></g></g><g fill="#000000" fill-opacity="1"><g transform="translate(105.491584, 164.116371)"><g><path d="M 49.785156 -45.839844 L 25.945312 -45.839844 C 22.863281 -45.839844 21.566406 -44 21.566406 -42.269531 C 21.566406 -40.648438 22.757812 -39.082031 24.703125 -39.082031 L 27.945312 -39.082031 L 24.648438 -30.378906 L 22.164062 -30.378906 C 19.242188 -30.378906 17.835938 -28.59375 17.835938 -26.863281 C 17.835938 -25.1875 19.136719 -23.566406 21.730469 -23.566406 L 22.269531 -23.566406 L 18.648438 -13.511719 C 16.8125 -8.433594 14.648438 -7.460938 11.835938 -7.460938 C 9.890625 -7.460938 8.539062 -8.757812 8.054688 -10.054688 C 8.164062 -10.433594 8.214844 -10.8125 8.214844 -11.1875 C 8.214844 -13.675781 6 -15.1875 3.890625 -15.1875 C 1.730469 -15.1875 -0.433594 -13.675781 -0.433594 -10.214844 C -0.433594 -5.082031 4.703125 0 11.785156 0 C 17.351562 0 22.8125 -2.539062 25.890625 -11.1875 C 27.1875 -14.972656 28.972656 -19.835938 30.324219 -23.621094 L 33.566406 -23.621094 C 36.863281 -23.621094 38.164062 -25.511719 38.164062 -27.296875 C 38.164062 -28.863281 37.136719 -30.378906 35.511719 -30.378906 L 32.703125 -30.378906 L 35.730469 -39.082031 L 48.433594 -39.082031 C 51.460938 -39.1875 52.757812 -40.917969 52.757812 -42.648438 C 52.757812 -44.269531 51.621094 -45.839844 49.785156 -45.839844 Z M 49.785156 -45.839844 "/></g></g></g><g fill="#000000" fill-opacity="1"><g transform="translate(141.488572, 164.116371)"><g><path d="M 32.8125 -17.296875 C 30.324219 -10.164062 22.917969 -6.8125 16.433594 -6.8125 C 11.460938 -6.8125 8.757812 -9.460938 8.757812 -13.136719 C 8.757812 -17.945312 11.675781 -20.648438 16.972656 -20.648438 C 18.8125 -19.566406 20.378906 -19.082031 21.730469 -19.082031 C 24.972656 -19.082031 26.757812 -21.730469 26.757812 -24.269531 C 26.757812 -26.488281 25.40625 -28.648438 22.378906 -28.757812 C 19.136719 -28.757812 17.460938 -30.972656 17.460938 -33.511719 C 17.460938 -37.027344 19.460938 -39.675781 23.027344 -39.675781 C 24.703125 -39.675781 26.324219 -38.488281 26.703125 -37.1875 C 27.460938 -34.488281 28.972656 -33.242188 30.863281 -33.242188 C 32.757812 -33.242188 34.59375 -34.539062 34.757812 -36.917969 C 35.082031 -42.648438 29.945312 -46.917969 23.1875 -46.917969 C 15.460938 -46.917969 8.757812 -40.757812 8.757812 -33.296875 C 8.757812 -31.027344 9.511719 -29.027344 10.863281 -27.40625 C 2.8125 -25.890625 -0.109375 -18.433594 -0.109375 -12.703125 C -0.109375 -5.40625 6.378906 0 16.269531 0 C 26.378906 0 36.214844 -5.785156 39.351562 -16.054688 C 39.511719 -16.488281 39.566406 -16.917969 39.566406 -17.296875 C 39.566406 -19.1875 38.054688 -20.214844 36.433594 -20.214844 C 34.917969 -20.214844 33.351562 -19.296875 32.8125 -17.296875 Z M 32.8125 -17.296875 "/></g></g></g><g fill="#000000" fill-opacity="1"><g transform="translate(171.864406, 164.116371)"><g><path d="M 11.351562 -42.757812 L -1.40625 -6.109375 C -1.675781 -5.296875 -1.785156 -4.59375 -1.785156 -3.890625 C -1.785156 -1.40625 0 0 1.945312 0 C 3.835938 0 5.785156 -1.351562 6.757812 -4.109375 L 19.511719 -40.757812 C 19.785156 -41.566406 19.890625 -42.269531 19.890625 -42.972656 C 19.890625 -45.460938 18.109375 -46.863281 16.164062 -46.863281 C 14.269531 -46.863281 12.164062 -45.566406 11.351562 -42.757812 Z M 11.351562 -42.757812 "/></g></g></g><g fill="#000000" fill-opacity="1"><g transform="translate(186.025381, 164.116371)"><g><path d="M 38.539062 -17.945312 C 37.136719 -17.945312 35.730469 -17.242188 35.1875 -15.675781 C 33.296875 -10.324219 30.648438 -6.8125 27.890625 -6.8125 C 26.59375 -6.8125 25.835938 -7.785156 25.835938 -9.027344 C 25.835938 -9.511719 25.890625 -10.054688 26.109375 -10.59375 L 34.324219 -33.890625 C 34.8125 -35.1875 35.082031 -36.488281 35.082031 -37.945312 C 35.082031 -43.40625 30.433594 -46.917969 24.863281 -46.917969 C 23.1875 -46.917969 20.648438 -46.433594 18.539062 -44.488281 C 18.324219 -46.054688 16.488281 -46.917969 14.703125 -46.917969 C 13.136719 -46.917969 11.675781 -46.269531 11.136719 -44.757812 L -2.917969 -5.242188 C -3.136719 -4.703125 -3.1875 -4.164062 -3.1875 -3.730469 C -3.1875 -1.460938 -1.1875 0 0.972656 0 C 2.917969 0 4.757812 -1.1875 5.730469 -3.945312 L 16.703125 -34.917969 C 17.835938 -38.109375 20.703125 -39.785156 23.136719 -39.785156 C 24.863281 -39.785156 26.214844 -38.757812 26.214844 -36.972656 C 26.214844 -36.433594 26.164062 -35.839844 25.890625 -35.082031 L 18.269531 -13.566406 C 17.675781 -11.890625 17.40625 -10.214844 17.40625 -8.703125 C 17.40625 -3.296875 21.027344 0 26.324219 0 C 32.324219 0 38.269531 -4.269531 41.675781 -14.269531 C 41.785156 -14.648438 41.839844 -14.972656 41.839844 -15.296875 C 41.839844 -16.972656 40.214844 -17.945312 38.539062 -17.945312 Z M 38.539062 -17.945312 "/></g></g></g></svg>