<svg xmlns="http://www.w3.org/2000/svg" xmlns:xlink="http://www.w3.org/1999/xlink" width="500" zoomAndPan="magnify" viewBox="0 0 375 374.999991" height="500" preserveAspectRatio="xMidYMid meet" version="1.0"><defs><g/><clipPath id="31b34b48ff"><path d="M 147.164062 122.304688 L 234.164062 122.304688 L 234.164062 216.804688 L 147.164062 216.804688 Z M 147.164062 122.304688 " clip-rule="nonzero"/></clipPath><clipPath id="39f243bb14"><path d="M 112.34375 80.902344 L 262.34375 80.902344 L 262.34375 198.652344 L 112.34375 198.652344 Z M 112.34375 80.902344 " clip-rule="nonzero"/></clipPath></defs><g clip-path="url(#31b34b48ff)"><path fill="#000000" d="M 166.304688 213.585938 L 148.683594 213.585938 C 147.867188 213.585938 147.207031 214.253906 147.207031 215.070312 C 147.207031 215.890625 147.867188 216.554688 148.683594 216.554688 L 221.355469 216.554688 C 222.167969 216.554688 222.828125 215.890625 222.828125 215.070312 C 222.828125 214.253906 222.167969 213.585938 221.355469 213.585938 L 199.191406 213.585938 C 207.835938 209.121094 213.746094 200.066406 213.746094 189.625 L 213.746094 167.589844 C 213.746094 166.773438 213.085938 166.105469 212.269531 166.105469 L 153.226562 166.105469 C 152.410156 166.105469 151.75 166.773438 151.75 167.589844 L 151.75 189.625 C 151.75 200.066406 157.660156 209.121094 166.304688 213.585938 Z M 228.167969 216.554688 L 232.707031 216.554688 C 233.523438 216.554688 234.183594 215.890625 234.183594 215.070312 C 234.183594 214.253906 233.523438 213.585938 232.707031 213.585938 L 228.167969 213.585938 C 227.351562 213.585938 226.691406 214.253906 226.691406 215.070312 C 226.691406 215.890625 227.351562 216.554688 228.167969 216.554688 Z M 186.953125 213.585938 L 178.542969 213.585938 C 165.375 213.585938 154.703125 202.859375 154.703125 189.625 L 154.703125 169.074219 L 210.792969 169.074219 C 210.792969 169.074219 210.792969 189.625 210.792969 189.625 C 210.792969 202.859375 200.121094 213.585938 186.953125 213.585938 Z M 217.582031 173.417969 C 218.210938 173.035156 220.015625 172.457031 222.0625 172.320312 C 224.042969 172.183594 226.292969 172.449219 227.886719 173.933594 C 229.285156 175.238281 230.101562 177.433594 229.984375 180.910156 C 229.816406 185.71875 228.65625 188.476562 226.84375 189.96875 C 225.558594 191.027344 223.976562 191.402344 222.363281 191.507812 C 220.523438 191.628906 218.636719 191.398438 216.960938 191.226562 C 216.152344 191.140625 215.425781 191.738281 215.34375 192.550781 C 215.261719 193.363281 215.851562 194.09375 216.660156 194.175781 C 220.511719 194.570312 225.339844 195.039062 228.714844 192.265625 C 230.988281 190.394531 232.722656 187.039062 232.933594 181.011719 C 233.09375 176.363281 231.761719 173.5 229.894531 171.761719 C 227.683594 169.699219 224.613281 169.171875 221.867188 169.359375 C 219.1875 169.535156 216.855469 170.386719 216.039062 170.890625 C 215.34375 171.320312 215.125 172.234375 215.554688 172.929688 C 215.980469 173.628906 216.890625 173.847656 217.582031 173.417969 Z M 202.84375 176.492188 L 202.84375 190.1875 C 202.84375 191.007812 203.507812 191.671875 204.320312 191.671875 C 205.136719 191.671875 205.796875 191.007812 205.796875 190.1875 L 205.796875 176.492188 C 205.796875 175.675781 205.136719 175.007812 204.320312 175.007812 C 203.507812 175.007812 202.84375 175.675781 202.84375 176.492188 Z M 163.347656 137.195312 C 161.980469 139.65625 160.515625 142.527344 160.898438 145.355469 C 161.167969 147.363281 162.253906 149.097656 163.394531 150.8125 C 164.28125 152.152344 165.222656 153.46875 165.449219 155.03125 C 165.5625 155.804688 165.328125 156.5625 164.988281 157.296875 C 164.5625 158.226562 163.957031 159.105469 163.414062 159.90625 C 162.957031 160.585938 163.132812 161.507812 163.804688 161.96875 C 164.480469 162.429688 165.398438 162.253906 165.855469 161.578125 C 167.226562 159.550781 168.730469 157.0625 168.371094 154.601562 C 168.078125 152.605469 166.984375 150.875 165.847656 149.164062 C 164.960938 147.832031 164.03125 146.519531 163.824219 144.960938 C 163.527344 142.746094 164.859375 140.5625 165.925781 138.636719 C 166.320312 137.917969 166.066406 137.015625 165.355469 136.617188 C 164.640625 136.21875 163.742188 136.476562 163.347656 137.195312 Z M 196.941406 137.195312 C 195.582031 139.65625 194.117188 142.527344 194.496094 145.355469 C 194.765625 147.363281 195.851562 149.097656 196.992188 150.8125 C 197.882812 152.152344 198.820312 153.46875 199.046875 155.03125 C 199.160156 155.804688 198.921875 156.5625 198.585938 157.296875 C 198.160156 158.226562 197.554688 159.105469 197.011719 159.90625 C 196.554688 160.585938 196.730469 161.507812 197.402344 161.96875 C 198.078125 162.429688 198.996094 162.253906 199.453125 161.578125 C 200.824219 159.550781 202.328125 157.0625 201.96875 154.601562 C 201.679688 152.605469 200.582031 150.875 199.445312 149.164062 C 198.558594 147.832031 197.632812 146.519531 197.421875 144.960938 C 197.125 142.746094 198.457031 140.5625 199.523438 138.636719 C 199.921875 137.917969 199.664062 137.015625 198.949219 136.617188 C 198.238281 136.21875 197.339844 136.476562 196.941406 137.195312 Z M 179.191406 123.496094 C 177.828125 125.960938 176.363281 128.832031 176.742188 131.660156 C 177.011719 133.664062 178.097656 135.402344 179.238281 137.117188 C 180.128906 138.457031 181.066406 139.773438 181.296875 141.335938 C 181.40625 142.105469 181.171875 142.867188 180.832031 143.597656 C 180.40625 144.527344 179.804688 145.410156 179.257812 146.210938 C 178.804688 146.890625 178.976562 147.8125 179.648438 148.273438 C 180.324219 148.734375 181.246094 148.558594 181.699219 147.878906 C 183.070312 145.855469 184.574219 143.367188 184.21875 140.902344 C 183.925781 138.90625 182.828125 137.179688 181.695312 135.46875 C 180.808594 134.136719 179.878906 132.820312 179.667969 131.261719 C 179.371094 129.050781 180.707031 126.863281 181.769531 124.941406 C 182.167969 124.222656 181.910156 123.320312 181.199219 122.921875 C 180.484375 122.523438 179.585938 122.78125 179.191406 123.496094 Z M 179.191406 123.496094 " fill-opacity="1" fill-rule="evenodd"/></g><g clip-path="url(#39f243bb14)"><path fill="#000000" d="M 187.34375 230.902344 C 146.003906 230.902344 112.34375 197.242188 112.34375 155.902344 C 112.34375 114.558594 146.003906 80.902344 187.34375 80.902344 C 228.6875 80.902344 262.34375 114.558594 262.34375 155.902344 C 262.34375 197.242188 228.6875 230.902344 187.34375 230.902344 Z M 187.34375 82.007812 C 146.59375 82.007812 113.453125 115.148438 113.453125 155.902344 C 113.453125 196.652344 146.59375 229.792969 187.34375 229.792969 C 228.09375 229.792969 261.234375 196.652344 261.234375 155.902344 C 261.234375 115.148438 228.09375 82.007812 187.34375 82.007812 Z M 187.34375 82.007812 " fill-opacity="1" fill-rule="nonzero"/></g><g fill="#000000" fill-opacity="1"><g transform="translate(134.816047, 255.730618)"><g><path d="M 5.3125 -5.636719 L 5.636719 -5.636719 C 5.636719 -6.628906 6.277344 -7.648438 7.5625 -7.648438 L 7.5625 -7.972656 C 6.277344 -7.972656 5.636719 -9.082031 5.636719 -10.042969 L 5.3125 -10.042969 C 5.3125 -9.082031 4.730469 -7.972656 3.359375 -7.972656 L 3.359375 -7.648438 C 4.730469 -7.648438 5.3125 -6.628906 5.3125 -5.636719 Z M 5.3125 -5.636719 "/></g></g></g><g fill="#000000" fill-opacity="1"><g transform="translate(145.616854, 255.730618)"><g><path d="M 12.527344 0.292969 C 15.796875 0.292969 18.570312 -0.527344 19.941406 -1.285156 L 20.410156 -5.082031 L 20.085938 -5.109375 C 18.949219 -1.957031 16.496094 -0.292969 13.34375 -0.292969 C 7.269531 -0.292969 3.941406 -5.546875 3.972656 -11.035156 C 3.972656 -16.992188 7.5625 -20.085938 12.203125 -20.085938 C 15.679688 -20.085938 18.453125 -18.308594 19.589844 -15.648438 L 19.882812 -15.707031 L 19.765625 -19.183594 C 18.628906 -19.914062 15.707031 -20.644531 13.199219 -20.644531 C 6.335938 -20.644531 1.519531 -16.03125 1.519531 -9.808594 C 1.519531 -3.445312 5.808594 0.292969 12.527344 0.292969 Z M 12.527344 0.292969 "/></g></g></g><g fill="#000000" fill-opacity="1"><g transform="translate(167.247663, 255.730618)"><g><path d="M -0.496094 0 L 2.804688 0 L 2.804688 -0.378906 C 1.808594 -0.582031 1.695312 -1.546875 2.453125 -3.445312 L 4.175781 -7.707031 L 12.410156 -7.707031 L 14.191406 -3.417969 C 15.125 -1.226562 15.359375 -0.640625 14.453125 -0.378906 L 14.453125 0 L 18.976562 0 L 18.976562 -0.378906 C 18.363281 -0.640625 17.664062 -1.226562 16.757812 -3.417969 L 9.578125 -20.671875 L 7.386719 -19.679688 L 7.648438 -19.066406 C 7.882812 -18.597656 7.914062 -18.21875 7.707031 -17.695312 L 1.957031 -3.445312 C 1.050781 -1.226562 0.320312 -0.640625 -0.496094 -0.378906 Z M 4.351562 -8.144531 L 8.234375 -17.753906 L 12.234375 -8.144531 Z M 4.351562 -8.144531 "/></g></g></g><g fill="#000000" fill-opacity="1"><g transform="translate(185.959335, 255.730618)"><g><path d="M 1.488281 0 L 6.21875 0 L 6.21875 -0.378906 C 5.3125 -0.640625 5.050781 -1.3125 5.050781 -3.707031 L 5.050781 -10.949219 L 8.527344 -10.949219 C 11.855469 -10.949219 12.671875 -10.25 13.050781 -8.933594 L 13.402344 -8.933594 L 13.402344 -13.371094 L 13.050781 -13.371094 C 12.671875 -12.085938 11.855469 -11.386719 8.527344 -11.417969 L 5.050781 -11.417969 L 5.050781 -19.972656 L 10.21875 -19.972656 C 12.964844 -19.972656 14.191406 -19.242188 15.183594 -17.285156 L 15.503906 -17.371094 L 15.242188 -20.4375 L 1.488281 -20.4375 L 1.488281 -20.058594 C 2.363281 -19.796875 2.65625 -19.125 2.65625 -16.730469 L 2.65625 -3.707031 C 2.65625 -1.3125 2.363281 -0.640625 1.488281 -0.378906 Z M 1.488281 0 "/></g></g></g><g fill="#000000" fill-opacity="1"><g transform="translate(202.277316, 255.730618)"><g><path d="M 1.488281 0 L 15.882812 0 L 16.117188 -3.882812 L 15.796875 -3.941406 C 14.746094 -1.226562 12.964844 -0.4375 10.160156 -0.4375 L 6.363281 -0.4375 C 5.519531 -0.4375 5.050781 -0.90625 5.050781 -1.75 L 5.050781 -10.714844 L 8.789062 -10.714844 C 12.117188 -10.714844 12.964844 -10.042969 13.3125 -8.730469 L 13.664062 -8.730469 L 13.664062 -13.140625 L 13.3125 -13.140625 C 12.964844 -11.824219 12.117188 -11.152344 8.789062 -11.152344 L 5.050781 -11.152344 L 5.050781 -20 L 9.34375 -20 C 12.320312 -20 14.042969 -19.125 15.066406 -16.554688 L 15.386719 -16.640625 L 15.066406 -20.4375 L 1.488281 -20.4375 L 1.488281 -20.058594 C 2.363281 -19.796875 2.65625 -19.125 2.65625 -16.730469 L 2.65625 -3.707031 C 2.65625 -1.3125 2.363281 -0.640625 1.488281 -0.378906 Z M 1.488281 0 "/></g></g></g><g fill="#000000" fill-opacity="1"><g transform="translate(219.471033, 255.730618)"><g><path d="M 1.488281 0 L 6.21875 0 L 6.21875 -0.378906 C 5.3125 -0.640625 5.050781 -1.3125 5.050781 -3.707031 L 5.050781 -16.730469 C 5.050781 -19.125 5.3125 -19.796875 6.21875 -20.058594 L 6.21875 -20.4375 L 1.488281 -20.4375 L 1.488281 -20.058594 C 2.363281 -19.796875 2.65625 -19.125 2.65625 -16.730469 L 2.65625 -3.707031 C 2.65625 -1.3125 2.363281 -0.640625 1.488281 -0.378906 Z M 1.488281 0 "/></g></g></g><g fill="#000000" fill-opacity="1"><g transform="translate(227.177552, 255.730618)"><g><path d="M 16.90625 0.234375 L 17.285156 0.234375 L 17.285156 -16.730469 C 17.285156 -19.125 17.546875 -19.796875 18.453125 -20.058594 L 18.453125 -20.4375 L 14.773438 -20.4375 L 14.773438 -20.058594 C 16.085938 -19.707031 16.789062 -18.890625 16.789062 -15.5625 L 16.789062 -3.914062 L 4.027344 -20.4375 L 1.167969 -20.4375 L 1.167969 -20.058594 C 2.335938 -19.796875 2.6875 -19.125 2.6875 -16.730469 L 2.6875 -3.707031 C 2.6875 -1.3125 2.394531 -0.640625 1.519531 -0.378906 L 1.519531 0 L 5.167969 0 L 5.167969 -0.378906 C 3.855469 -0.730469 3.152344 -1.546875 3.152344 -4.875 L 3.152344 -17.664062 Z M 16.90625 0.234375 "/></g></g></g><g fill="#000000" fill-opacity="1"><g transform="translate(119.598277, 280.50297)"><g><path d="M 5.40625 -11.40625 C 6.144531 -11.40625 6.796875 -11.242188 7.359375 -10.921875 C 7.921875 -10.609375 8.375 -10.191406 8.71875 -9.671875 C 9.0625 -9.160156 9.265625 -8.617188 9.328125 -8.046875 L 8.640625 -8.046875 C 8.535156 -8.535156 8.347656 -8.984375 8.078125 -9.390625 C 7.804688 -9.804688 7.445312 -10.140625 7 -10.390625 C 6.550781 -10.640625 6.019531 -10.765625 5.40625 -10.765625 C 4.5625 -10.765625 3.859375 -10.570312 3.296875 -10.1875 C 2.734375 -9.8125 2.3125 -9.238281 2.03125 -8.46875 C 1.757812 -7.707031 1.625 -6.753906 1.625 -5.609375 C 1.625 -3.878906 1.9375 -2.59375 2.5625 -1.75 C 3.1875 -0.90625 4.132812 -0.484375 5.40625 -0.484375 C 6.019531 -0.484375 6.550781 -0.609375 7 -0.859375 C 7.445312 -1.109375 7.804688 -1.4375 8.078125 -1.84375 C 8.347656 -2.257812 8.535156 -2.710938 8.640625 -3.203125 L 9.328125 -3.203125 C 9.273438 -2.773438 9.144531 -2.359375 8.9375 -1.953125 C 8.726562 -1.554688 8.453125 -1.195312 8.109375 -0.875 C 7.773438 -0.5625 7.378906 -0.3125 6.921875 -0.125 C 6.460938 0.0625 5.957031 0.15625 5.40625 0.15625 C 4.425781 0.15625 3.601562 -0.0546875 2.9375 -0.484375 C 2.28125 -0.921875 1.78125 -1.566406 1.4375 -2.421875 C 1.101562 -3.273438 0.9375 -4.335938 0.9375 -5.609375 C 0.9375 -6.867188 1.101562 -7.925781 1.4375 -8.78125 C 1.78125 -9.644531 2.28125 -10.296875 2.9375 -10.734375 C 3.601562 -11.179688 4.425781 -11.40625 5.40625 -11.40625 Z M 5.40625 -11.40625 "/></g></g></g><g fill="#000000" fill-opacity="1"><g transform="translate(129.853991, 280.50297)"><g><path d="M 0.859375 0 L 4.984375 -11.25 L 5.84375 -11.25 L 9.9375 0 L 9.28125 0 L 7.984375 -3.546875 L 2.828125 -3.546875 L 1.515625 0 Z M 3.046875 -4.21875 L 7.75 -4.21875 L 5.421875 -10.59375 Z M 3.046875 -4.21875 "/></g></g></g><g fill="#000000" fill-opacity="1"><g transform="translate(140.654386, 280.50297)"><g><path d="M 1.71875 -11.25 L 8.078125 -11.25 L 8.078125 -10.625 L 2.375 -10.625 L 2.375 -6.015625 L 7.671875 -6.015625 L 7.671875 -5.390625 L 2.375 -5.390625 L 2.375 0 L 1.71875 0 Z M 1.71875 -11.25 "/></g></g></g><g fill="#000000" fill-opacity="1"><g transform="translate(149.587278, 280.50297)"><g><path d="M 1.71875 0 L 1.71875 -11.25 L 8.171875 -11.25 L 8.171875 -10.625 L 2.3125 -10.625 L 2.3125 -6 L 7.765625 -6 L 7.765625 -5.375 L 2.3125 -5.375 L 2.3125 -0.65625 L 8.390625 -0.640625 L 8.390625 0 Z M 1.71875 0 "/></g></g></g><g fill="#000000" fill-opacity="1"><g transform="translate(159.025952, 280.50297)"><g/></g></g><g fill="#000000" fill-opacity="1"><g transform="translate(162.901024, 280.50297)"><g><path d="M 5.125 0.15625 C 4.625 0.15625 4.144531 0.09375 3.6875 -0.03125 C 3.226562 -0.15625 2.8125 -0.34375 2.4375 -0.59375 C 2.070312 -0.84375 1.765625 -1.144531 1.515625 -1.5 C 1.273438 -1.863281 1.113281 -2.28125 1.03125 -2.75 L 1.71875 -2.75 C 1.832031 -2.238281 2.054688 -1.8125 2.390625 -1.46875 C 2.722656 -1.132812 3.125 -0.878906 3.59375 -0.703125 C 4.070312 -0.535156 4.582031 -0.453125 5.125 -0.453125 C 5.769531 -0.453125 6.335938 -0.546875 6.828125 -0.734375 C 7.316406 -0.929688 7.695312 -1.203125 7.96875 -1.546875 C 8.25 -1.890625 8.390625 -2.28125 8.390625 -2.71875 C 8.390625 -3.125 8.316406 -3.476562 8.171875 -3.78125 C 8.035156 -4.09375 7.820312 -4.359375 7.53125 -4.578125 C 7.238281 -4.796875 6.851562 -4.96875 6.375 -5.09375 L 3.921875 -5.71875 C 3.109375 -5.914062 2.476562 -6.222656 2.03125 -6.640625 C 1.59375 -7.066406 1.375 -7.613281 1.375 -8.28125 C 1.375 -8.875 1.523438 -9.40625 1.828125 -9.875 C 2.140625 -10.34375 2.570312 -10.710938 3.125 -10.984375 C 3.675781 -11.253906 4.320312 -11.390625 5.0625 -11.390625 C 5.894531 -11.390625 6.585938 -11.234375 7.140625 -10.921875 C 7.703125 -10.617188 8.125 -10.226562 8.40625 -9.75 C 8.695312 -9.269531 8.835938 -8.78125 8.828125 -8.28125 L 8.140625 -8.28125 C 8.085938 -8.90625 7.90625 -9.394531 7.59375 -9.75 C 7.289062 -10.113281 6.914062 -10.367188 6.46875 -10.515625 C 6.019531 -10.671875 5.546875 -10.75 5.046875 -10.75 C 4.710938 -10.75 4.367188 -10.703125 4.015625 -10.609375 C 3.660156 -10.515625 3.332031 -10.363281 3.03125 -10.15625 C 2.726562 -9.957031 2.484375 -9.703125 2.296875 -9.390625 C 2.109375 -9.085938 2.015625 -8.722656 2.015625 -8.296875 C 2.015625 -7.816406 2.179688 -7.421875 2.515625 -7.109375 C 2.859375 -6.804688 3.460938 -6.539062 4.328125 -6.3125 L 6.6875 -5.6875 C 7.125 -5.570312 7.488281 -5.414062 7.78125 -5.21875 C 8.082031 -5.019531 8.328125 -4.789062 8.515625 -4.53125 C 8.703125 -4.269531 8.835938 -3.988281 8.921875 -3.6875 C 9.003906 -3.382812 9.046875 -3.070312 9.046875 -2.75 C 9.046875 -2.21875 8.898438 -1.734375 8.609375 -1.296875 C 8.316406 -0.859375 7.878906 -0.503906 7.296875 -0.234375 C 6.722656 0.0234375 6 0.15625 5.125 0.15625 Z M 5.125 0.15625 "/></g></g></g><g fill="#000000" fill-opacity="1"><g transform="translate(173.063354, 280.50297)"><g><path d="M 1.71875 0 L 1.71875 -11.25 L 8.171875 -11.25 L 8.171875 -10.625 L 2.3125 -10.625 L 2.3125 -6 L 7.765625 -6 L 7.765625 -5.375 L 2.3125 -5.375 L 2.3125 -0.65625 L 8.390625 -0.640625 L 8.390625 0 Z M 1.71875 0 "/></g></g></g><g fill="#000000" fill-opacity="1"><g transform="translate(182.502028, 280.50297)"><g><path d="M 0.859375 0 L 4.984375 -11.25 L 5.84375 -11.25 L 9.9375 0 L 9.28125 0 L 7.984375 -3.546875 L 2.828125 -3.546875 L 1.515625 0 Z M 3.046875 -4.21875 L 7.75 -4.21875 L 5.421875 -10.59375 Z M 3.046875 -4.21875 "/></g></g></g><g fill="#000000" fill-opacity="1"><g transform="translate(193.302424, 280.50297)"><g><path d="M 9.078125 0 L 8.375 0 L 6.09375 -5.359375 L 2.3125 -5.359375 L 2.3125 0 L 1.71875 0 L 1.71875 -11.25 L 5.6875 -11.25 C 6.40625 -11.25 7.019531 -11.144531 7.53125 -10.9375 C 8.050781 -10.726562 8.445312 -10.414062 8.71875 -10 C 9 -9.59375 9.140625 -9.082031 9.140625 -8.46875 C 9.140625 -7.84375 9.015625 -7.328125 8.765625 -6.921875 C 8.515625 -6.515625 8.203125 -6.195312 7.828125 -5.96875 C 7.460938 -5.75 7.097656 -5.59375 6.734375 -5.5 Z M 5.15625 -5.984375 C 6.238281 -5.984375 7.0625 -6.164062 7.625 -6.53125 C 8.195312 -6.90625 8.484375 -7.515625 8.484375 -8.359375 C 8.484375 -9.160156 8.242188 -9.738281 7.765625 -10.09375 C 7.285156 -10.445312 6.585938 -10.625 5.671875 -10.625 L 2.3125 -10.625 L 2.3125 -5.984375 Z M 5.15625 -5.984375 "/></g></g></g><g fill="#000000" fill-opacity="1"><g transform="translate(203.52701, 280.50297)"><g><path d="M 5.40625 -11.40625 C 6.144531 -11.40625 6.796875 -11.242188 7.359375 -10.921875 C 7.921875 -10.609375 8.375 -10.191406 8.71875 -9.671875 C 9.0625 -9.160156 9.265625 -8.617188 9.328125 -8.046875 L 8.640625 -8.046875 C 8.535156 -8.535156 8.347656 -8.984375 8.078125 -9.390625 C 7.804688 -9.804688 7.445312 -10.140625 7 -10.390625 C 6.550781 -10.640625 6.019531 -10.765625 5.40625 -10.765625 C 4.5625 -10.765625 3.859375 -10.570312 3.296875 -10.1875 C 2.734375 -9.8125 2.3125 -9.238281 2.03125 -8.46875 C 1.757812 -7.707031 1.625 -6.753906 1.625 -5.609375 C 1.625 -3.878906 1.9375 -2.59375 2.5625 -1.75 C 3.1875 -0.90625 4.132812 -0.484375 5.40625 -0.484375 C 6.019531 -0.484375 6.550781 -0.609375 7 -0.859375 C 7.445312 -1.109375 7.804688 -1.4375 8.078125 -1.84375 C 8.347656 -2.257812 8.535156 -2.710938 8.640625 -3.203125 L 9.328125 -3.203125 C 9.273438 -2.773438 9.144531 -2.359375 8.9375 -1.953125 C 8.726562 -1.554688 8.453125 -1.195312 8.109375 -0.875 C 7.773438 -0.5625 7.378906 -0.3125 6.921875 -0.125 C 6.460938 0.0625 5.957031 0.15625 5.40625 0.15625 C 4.425781 0.15625 3.601562 -0.0546875 2.9375 -0.484375 C 2.28125 -0.921875 1.78125 -1.566406 1.4375 -2.421875 C 1.101562 -3.273438 0.9375 -4.335938 0.9375 -5.609375 C 0.9375 -6.867188 1.101562 -7.925781 1.4375 -8.78125 C 1.78125 -9.644531 2.28125 -10.296875 2.9375 -10.734375 C 3.601562 -11.179688 4.425781 -11.40625 5.40625 -11.40625 Z M 5.40625 -11.40625 "/></g></g></g><g fill="#000000" fill-opacity="1"><g transform="translate(213.782723, 280.50297)"><g><path d="M 9.546875 -5.546875 L 2.3125 -5.546875 L 2.3125 0 L 1.71875 0 L 1.71875 -11.25 L 2.3125 -11.25 L 2.3125 -6.171875 L 9.546875 -6.171875 L 9.546875 -11.25 L 10.140625 -11.25 L 10.140625 0 L 9.546875 0 Z M 9.546875 -5.546875 "/></g></g></g><g fill="#000000" fill-opacity="1"><g transform="translate(225.641377, 280.50297)"><g/></g></g><g fill="#000000" fill-opacity="1"><g transform="translate(229.516449, 280.50297)"><g><path d="M 5.125 0.15625 C 4.625 0.15625 4.144531 0.09375 3.6875 -0.03125 C 3.226562 -0.15625 2.8125 -0.34375 2.4375 -0.59375 C 2.070312 -0.84375 1.765625 -1.144531 1.515625 -1.5 C 1.273438 -1.863281 1.113281 -2.28125 1.03125 -2.75 L 1.71875 -2.75 C 1.832031 -2.238281 2.054688 -1.8125 2.390625 -1.46875 C 2.722656 -1.132812 3.125 -0.878906 3.59375 -0.703125 C 4.070312 -0.535156 4.582031 -0.453125 5.125 -0.453125 C 5.769531 -0.453125 6.335938 -0.546875 6.828125 -0.734375 C 7.316406 -0.929688 7.695312 -1.203125 7.96875 -1.546875 C 8.25 -1.890625 8.390625 -2.28125 8.390625 -2.71875 C 8.390625 -3.125 8.316406 -3.476562 8.171875 -3.78125 C 8.035156 -4.09375 7.820312 -4.359375 7.53125 -4.578125 C 7.238281 -4.796875 6.851562 -4.96875 6.375 -5.09375 L 3.921875 -5.71875 C 3.109375 -5.914062 2.476562 -6.222656 2.03125 -6.640625 C 1.59375 -7.066406 1.375 -7.613281 1.375 -8.28125 C 1.375 -8.875 1.523438 -9.40625 1.828125 -9.875 C 2.140625 -10.34375 2.570312 -10.710938 3.125 -10.984375 C 3.675781 -11.253906 4.320312 -11.390625 5.0625 -11.390625 C 5.894531 -11.390625 6.585938 -11.234375 7.140625 -10.921875 C 7.703125 -10.617188 8.125 -10.226562 8.40625 -9.75 C 8.695312 -9.269531 8.835938 -8.78125 8.828125 -8.28125 L 8.140625 -8.28125 C 8.085938 -8.90625 7.90625 -9.394531 7.59375 -9.75 C 7.289062 -10.113281 6.914062 -10.367188 6.46875 -10.515625 C 6.019531 -10.671875 5.546875 -10.75 5.046875 -10.75 C 4.710938 -10.75 4.367188 -10.703125 4.015625 -10.609375 C 3.660156 -10.515625 3.332031 -10.363281 3.03125 -10.15625 C 2.726562 -9.957031 2.484375 -9.703125 2.296875 -9.390625 C 2.109375 -9.085938 2.015625 -8.722656 2.015625 -8.296875 C 2.015625 -7.816406 2.179688 -7.421875 2.515625 -7.109375 C 2.859375 -6.804688 3.460938 -6.539062 4.328125 -6.3125 L 6.6875 -5.6875 C 7.125 -5.570312 7.488281 -5.414062 7.78125 -5.21875 C 8.082031 -5.019531 8.328125 -4.789062 8.515625 -4.53125 C 8.703125 -4.269531 8.835938 -3.988281 8.921875 -3.6875 C 9.003906 -3.382812 9.046875 -3.070312 9.046875 -2.75 C 9.046875 -2.21875 8.898438 -1.734375 8.609375 -1.296875 C 8.316406 -0.859375 7.878906 -0.503906 7.296875 -0.234375 C 6.722656 0.0234375 6 0.15625 5.125 0.15625 Z M 5.125 0.15625 "/></g></g></g><g fill="#000000" fill-opacity="1"><g transform="translate(239.678779, 280.50297)"><g><path d="M 1.71875 -11.25 L 2.3125 -11.25 L 2.3125 0 L 1.71875 0 Z M 1.71875 -11.25 "/></g></g></g><g fill="#000000" fill-opacity="1"><g transform="translate(243.709479, 280.50297)"><g><path d="M 0.421875 -10.625 L 0.421875 -11.25 L 8.453125 -11.25 L 8.453125 -10.625 L 4.90625 -10.625 L 4.90625 0 L 4.28125 0 L 4.28125 -10.625 Z M 0.421875 -10.625 "/></g></g></g><g fill="#000000" fill-opacity="1"><g transform="translate(252.587908, 280.50297)"><g><path d="M 1.71875 0 L 1.71875 -11.25 L 8.171875 -11.25 L 8.171875 -10.625 L 2.3125 -10.625 L 2.3125 -6 L 7.765625 -6 L 7.765625 -5.375 L 2.3125 -5.375 L 2.3125 -0.65625 L 8.390625 -0.640625 L 8.390625 0 Z M 1.71875 0 "/></g></g></g><g fill="#000000" fill-opacity="1"><g transform="translate(190.801398, 302.252968)"><g/></g></g></svg>