<svg width="80" height="80" viewBox="0 0 80 80" fill="none" xmlns="http://www.w3.org/2000/svg">
<circle cx="40" cy="40" r="37.5" fill="#D9D9D9" stroke="#483219" stroke-width="5"/>
<path d="M39.7332 18.3999C42.5622 18.3999 45.2753 19.5237 47.2757 21.5241C49.2761 23.5245 50.3999 26.2376 50.3999 29.0666C50.3999 31.8955 49.2761 34.6087 47.2757 36.609C45.2753 38.6094 42.5622 39.7332 39.7332 39.7332C36.9043 39.7332 34.1911 38.6094 32.1908 36.609C30.1904 34.6087 29.0666 31.8955 29.0666 29.0666C29.0666 26.2376 30.1904 23.5245 32.1908 21.5241C34.1911 19.5237 36.9043 18.3999 39.7332 18.3999ZM39.7332 45.0666C51.5199 45.0666 61.0666 49.8399 61.0666 55.7332V61.0666H18.3999V55.7332C18.3999 49.8399 27.9466 45.0666 39.7332 45.0666Z" fill="#444444"/>
</svg>
